<svg width="175" height="44" viewBox="0 0 175 44" fill="none" xmlns="http://www.w3.org/2000/svg">
<path d="M6.79499 1.68291C6.9507 0.713168 7.78752 0 8.76969 0H172.595C173.846 0 174.79 1.13475 174.562 2.36435L167.151 42.3644C166.975 43.3123 166.148 44 165.184 44H2.34677C1.11569 44 0.176884 42.8984 0.372061 41.6829L6.79499 1.68291Z" fill="#E11138"/>
<path d="M14.8311 22.1326C14.8311 20.386 15.2089 18.8325 15.9647 17.4722C16.7204 16.095 17.7701 15.0286 19.1136 14.2728C20.474 13.5003 22.0106 13.114 23.7237 13.114C25.823 13.114 27.62 13.6683 29.1147 14.7767C30.6093 15.8851 31.6086 17.3966 32.1124 19.3111H27.3764C27.0238 18.5722 26.5199 18.0096 25.8649 17.6233C25.2268 17.237 24.4962 17.0439 23.6733 17.0439C22.3465 17.0439 21.2717 17.5058 20.4488 18.4294C19.6259 19.3531 19.2144 20.5875 19.2144 22.1326C19.2144 23.6777 19.6259 24.9121 20.4488 25.8357C21.2717 26.7594 22.3465 27.2213 23.6733 27.2213C24.4962 27.2213 25.2268 27.0281 25.8649 26.6419C26.5199 26.2556 27.0238 25.693 27.3764 24.954H32.1124C31.6086 26.8686 30.6093 28.3801 29.1147 29.4885C27.62 30.5801 25.823 31.126 23.7237 31.126C22.0106 31.126 20.474 30.7481 19.1136 29.9923C17.7701 29.2198 16.7204 28.1534 15.9647 26.793C15.2089 25.4327 14.8311 23.8792 14.8311 22.1326ZM33.8939 23.9464C33.8939 22.5021 34.1627 21.2341 34.7001 20.1425C35.2543 19.0508 36.0016 18.2111 36.9421 17.6233C37.8826 17.0355 38.9322 16.7416 40.0911 16.7416C41.0819 16.7416 41.9468 16.9431 42.6858 17.3462C43.4415 17.7493 44.0209 18.2783 44.424 18.9333V16.9431H48.7317V31H44.424V29.0099C44.0041 29.6649 43.4163 30.1939 42.6606 30.5969C41.9216 31 41.0567 31.2015 40.0659 31.2015C38.9239 31.2015 37.8826 30.9076 36.9421 30.3198C36.0016 29.7152 35.2543 28.8671 34.7001 27.7755C34.1627 26.6671 33.8939 25.3907 33.8939 23.9464ZM44.424 23.9716C44.424 22.8967 44.1217 22.0486 43.5171 21.4272C42.9293 20.8058 42.2071 20.4951 41.3506 20.4951C40.4941 20.4951 39.7636 20.8058 39.159 21.4272C38.5712 22.0318 38.2773 22.8715 38.2773 23.9464C38.2773 25.0212 38.5712 25.8777 39.159 26.5159C39.7636 27.1373 40.4941 27.448 41.3506 27.448C42.2071 27.448 42.9293 27.1373 43.5171 26.5159C44.1217 25.8945 44.424 25.0464 44.424 23.9716ZM56.1559 19.286C56.6598 18.5134 57.2896 17.9088 58.0453 17.4722C58.8011 17.0187 59.6408 16.792 60.5645 16.792V21.3517H59.3805C58.3056 21.3517 57.4995 21.5868 56.9621 22.057C56.4247 22.5105 56.1559 23.3166 56.1559 24.4754V31H51.8482V16.9431H56.1559V19.286ZM68.3419 31.2015C67.1159 31.2015 66.0243 30.9916 65.067 30.5717C64.1098 30.1519 63.354 29.5809 62.7998 28.8587C62.2456 28.1198 61.9349 27.2969 61.8677 26.39H66.1251C66.1755 26.877 66.4022 27.2717 66.8053 27.574C67.2083 27.8763 67.7037 28.0274 68.2915 28.0274C68.829 28.0274 69.2404 27.9266 69.5259 27.7251C69.8282 27.5068 69.9794 27.2297 69.9794 26.8938C69.9794 26.4907 69.7695 26.1968 69.3496 26.0121C68.9297 25.8106 68.2496 25.5922 67.3091 25.3571C66.3014 25.122 65.4617 24.8785 64.7899 24.6266C64.1182 24.3578 63.5388 23.9464 63.0517 23.3922C62.5647 22.8212 62.3212 22.057 62.3212 21.0997C62.3212 20.2936 62.5395 19.5631 62.9761 18.9081C63.4296 18.2363 64.0846 17.7073 64.9411 17.321C65.8144 16.9348 66.8472 16.7416 68.0396 16.7416C69.803 16.7416 71.1886 17.1783 72.1962 18.0516C73.2207 18.9249 73.8085 20.0837 73.9596 21.528H69.9794C69.9122 21.041 69.6939 20.6547 69.3244 20.3692C68.9717 20.0837 68.5015 19.9409 67.9137 19.9409C67.4098 19.9409 67.0236 20.0417 66.7549 20.2432C66.4862 20.428 66.3518 20.6883 66.3518 21.0242C66.3518 21.4272 66.5617 21.7295 66.9816 21.9311C67.4182 22.1326 68.09 22.3341 68.9969 22.5357C70.0382 22.8044 70.8863 23.0731 71.5413 23.3418C72.1962 23.5937 72.7672 24.0136 73.2543 24.6014C73.7581 25.1724 74.0184 25.9449 74.0352 26.919C74.0352 27.7419 73.8001 28.4809 73.3298 29.1358C72.8764 29.774 72.213 30.2778 71.3397 30.6473C70.4832 31.0168 69.4839 31.2015 68.3419 31.2015Z" fill="black"/>
<path d="M89.3924 13.3156V16.7668H84.7068V31H80.399V16.7668H75.7134V13.3156H89.3924ZM97.953 31.2015C96.5758 31.2015 95.333 30.9076 94.2246 30.3198C93.133 29.732 92.2681 28.8923 91.6299 27.8007C91.0085 26.709 90.6978 25.4327 90.6978 23.9716C90.6978 22.5273 91.0169 21.2593 91.6551 20.1677C92.2933 19.0592 93.1666 18.2111 94.275 17.6233C95.3834 17.0355 96.6262 16.7416 98.0033 16.7416C99.3805 16.7416 100.623 17.0355 101.732 17.6233C102.84 18.2111 103.713 19.0592 104.352 20.1677C104.99 21.2593 105.309 22.5273 105.309 23.9716C105.309 25.4159 104.981 26.6923 104.326 27.8007C103.688 28.8923 102.807 29.732 101.681 30.3198C100.573 30.9076 99.3301 31.2015 97.953 31.2015ZM97.953 27.4732C98.7759 27.4732 99.4728 27.1709 100.044 26.5663C100.632 25.9617 100.926 25.0968 100.926 23.9716C100.926 22.8464 100.64 21.9814 100.069 21.3769C99.5148 20.7723 98.8263 20.47 98.0033 20.47C97.1636 20.47 96.4667 20.7723 95.9124 21.3769C95.3582 21.9647 95.0811 22.8296 95.0811 23.9716C95.0811 25.0968 95.3498 25.9617 95.8873 26.5663C96.4415 27.1709 97.13 27.4732 97.953 27.4732ZM106.738 23.9464C106.738 22.5021 107.006 21.2341 107.544 20.1425C108.098 19.0508 108.845 18.2111 109.786 17.6233C110.726 17.0355 111.776 16.7416 112.935 16.7416C113.858 16.7416 114.698 16.9348 115.454 17.321C116.226 17.7073 116.831 18.2279 117.268 18.8829V12.3583H121.575V31H117.268V28.9847C116.865 29.6565 116.285 30.1939 115.53 30.5969C114.791 31 113.926 31.2015 112.935 31.2015C111.776 31.2015 110.726 30.9076 109.786 30.3198C108.845 29.7152 108.098 28.8671 107.544 27.7755C107.006 26.6671 106.738 25.3907 106.738 23.9464ZM117.268 23.9716C117.268 22.8967 116.965 22.0486 116.361 21.4272C115.773 20.8058 115.051 20.4951 114.194 20.4951C113.338 20.4951 112.607 20.8058 112.003 21.4272C111.415 22.0318 111.121 22.8715 111.121 23.9464C111.121 25.0212 111.415 25.8777 112.003 26.5159C112.607 27.1373 113.338 27.448 114.194 27.448C115.051 27.448 115.773 27.1373 116.361 26.5159C116.965 25.8945 117.268 25.0464 117.268 23.9716ZM123.835 23.9464C123.835 22.5021 124.104 21.2341 124.642 20.1425C125.196 19.0508 125.943 18.2111 126.884 17.6233C127.824 17.0355 128.874 16.7416 130.033 16.7416C131.023 16.7416 131.888 16.9431 132.627 17.3462C133.383 17.7493 133.962 18.2783 134.365 18.9333V16.9431H138.673V31H134.365V29.0099C133.946 29.6649 133.358 30.1939 132.602 30.5969C131.863 31 130.998 31.2015 130.007 31.2015C128.865 31.2015 127.824 30.9076 126.884 30.3198C125.943 29.7152 125.196 28.8671 124.642 27.7755C124.104 26.6671 123.835 25.3907 123.835 23.9464ZM134.365 23.9716C134.365 22.8967 134.063 22.0486 133.459 21.4272C132.871 20.8058 132.149 20.4951 131.292 20.4951C130.436 20.4951 129.705 20.8058 129.1 21.4272C128.513 22.0318 128.219 22.8715 128.219 23.9464C128.219 25.0212 128.513 25.8777 129.1 26.5159C129.705 27.1373 130.436 27.448 131.292 27.448C132.149 27.448 132.871 27.1373 133.459 26.5159C134.063 25.8945 134.365 25.0464 134.365 23.9716ZM156.149 16.9431L147.332 37.6757H142.697L145.921 30.5214L140.203 16.9431H145.014L148.264 25.735L151.488 16.9431H156.149Z" fill="white"/>
</svg>
